<mxfile host="app.diagrams.net" agent="Mozilla/5.0 (Windows NT 10.0; Win64; x64) AppleWebKit/537.36 (KHTML, like Gecko) Chrome/131.0.0.0 Safari/537.36" version="25.0.3">
  <diagram name="Page-1" id="WKEdtSM3jrM_5UuTQD_j">
    <mxGraphModel dx="1050" dy="522" grid="1" gridSize="10" guides="1" tooltips="1" connect="1" arrows="1" fold="1" page="1" pageScale="1" pageWidth="850" pageHeight="1100" math="0" shadow="0">
      <root>
        <mxCell id="0" />
        <mxCell id="1" parent="0" />
        <object label="&lt;font style=&quot;font-size: 14px;&quot;&gt;&lt;b&gt;STOP&lt;/b&gt;&lt;/font&gt;" placeholders="1" Data="Data" id="9NHKSMUlSYhg7HR8SAOz-6">
          <mxCell style="ellipse;whiteSpace=wrap;html=1;" parent="1" vertex="1">
            <mxGeometry x="422.5" y="660" width="115" height="30" as="geometry" />
          </mxCell>
        </object>
        <mxCell id="lDO_9Y3Sv0ln4zMzOG0P-6" value="" style="edgeStyle=orthogonalEdgeStyle;rounded=0;orthogonalLoop=1;jettySize=auto;html=1;" edge="1" parent="1" source="9NHKSMUlSYhg7HR8SAOz-8" target="9NHKSMUlSYhg7HR8SAOz-9">
          <mxGeometry relative="1" as="geometry" />
        </mxCell>
        <mxCell id="9NHKSMUlSYhg7HR8SAOz-8" value="&lt;b&gt;&lt;font style=&quot;font-size: 15px;&quot;&gt;FACE RECOGNITION&amp;nbsp;&lt;/font&gt;&lt;/b&gt;" style="rounded=0;whiteSpace=wrap;html=1;" parent="1" vertex="1">
          <mxGeometry x="355" y="200" width="120" height="40" as="geometry" />
        </mxCell>
        <mxCell id="lDO_9Y3Sv0ln4zMzOG0P-5" style="edgeStyle=orthogonalEdgeStyle;rounded=0;orthogonalLoop=1;jettySize=auto;html=1;exitX=0.5;exitY=1;exitDx=0;exitDy=0;entryX=0.5;entryY=0;entryDx=0;entryDy=0;" edge="1" parent="1" source="lDO_9Y3Sv0ln4zMzOG0P-33">
          <mxGeometry relative="1" as="geometry">
            <mxPoint x="415" y="400" as="targetPoint" />
          </mxGeometry>
        </mxCell>
        <mxCell id="lDO_9Y3Sv0ln4zMzOG0P-35" style="edgeStyle=orthogonalEdgeStyle;rounded=0;orthogonalLoop=1;jettySize=auto;html=1;exitX=0.5;exitY=1;exitDx=0;exitDy=0;" edge="1" parent="1" source="9NHKSMUlSYhg7HR8SAOz-9" target="lDO_9Y3Sv0ln4zMzOG0P-33">
          <mxGeometry relative="1" as="geometry" />
        </mxCell>
        <mxCell id="lDO_9Y3Sv0ln4zMzOG0P-37" style="edgeStyle=orthogonalEdgeStyle;rounded=0;orthogonalLoop=1;jettySize=auto;html=1;exitX=1;exitY=0.5;exitDx=0;exitDy=0;entryX=0;entryY=0.5;entryDx=0;entryDy=0;" edge="1" parent="1" source="9NHKSMUlSYhg7HR8SAOz-9" target="lDO_9Y3Sv0ln4zMzOG0P-28">
          <mxGeometry relative="1" as="geometry" />
        </mxCell>
        <mxCell id="9NHKSMUlSYhg7HR8SAOz-9" value="&lt;b&gt;AUTHENTICATE&lt;span style=&quot;color: rgba(0, 0, 0, 0); font-family: monospace; font-size: 0px; text-align: start; text-wrap: nowrap;&quot;&gt;%3CmxGraphModel%3E%3Croot%3E%3CmxCell%20id%3D%220%22%2F%3E%3CmxCell%20id%3D%221%22%20parent%3D%220%22%2F%3E%3CmxCell%20id%3D%222%22%20value%3D%22%22%20style%3D%22rounded%3D0%3BwhiteSpace%3Dwrap%3Bhtml%3D1%3B%22%20vertex%3D%221%22%20parent%3D%221%22%3E%3CmxGeometry%20x%3D%22130%22%20y%3D%22190%22%20width%3D%22120%22%20height%3D%2260%22%20as%3D%22geometry%22%2F%3E%3C%2FmxCell%3E%3C%2Froot%3E%3C%2FmxGraphModel%3E&lt;/span&gt;&lt;/b&gt;" style="rhombus;whiteSpace=wrap;html=1;" parent="1" vertex="1">
          <mxGeometry x="352.5" y="270" width="125" height="80" as="geometry" />
        </mxCell>
        <mxCell id="lDO_9Y3Sv0ln4zMzOG0P-54" style="edgeStyle=orthogonalEdgeStyle;rounded=0;orthogonalLoop=1;jettySize=auto;html=1;exitX=0.5;exitY=1;exitDx=0;exitDy=0;entryX=0;entryY=0.5;entryDx=0;entryDy=0;" edge="1" parent="1" source="9NHKSMUlSYhg7HR8SAOz-10" target="lDO_9Y3Sv0ln4zMzOG0P-53">
          <mxGeometry relative="1" as="geometry" />
        </mxCell>
        <mxCell id="9NHKSMUlSYhg7HR8SAOz-10" value="&lt;span style=&quot;font-size: 14px;&quot;&gt;&lt;b&gt;RESULTS HIDDEN&lt;/b&gt;&lt;/span&gt;" style="rounded=0;whiteSpace=wrap;html=1;" parent="1" vertex="1">
          <mxGeometry x="140" y="510" width="130" height="40" as="geometry" />
        </mxCell>
        <mxCell id="lDO_9Y3Sv0ln4zMzOG0P-43" style="edgeStyle=orthogonalEdgeStyle;rounded=0;orthogonalLoop=1;jettySize=auto;html=1;exitX=0.5;exitY=1;exitDx=0;exitDy=0;entryX=0.5;entryY=0;entryDx=0;entryDy=0;" edge="1" parent="1" source="9NHKSMUlSYhg7HR8SAOz-11" target="lDO_9Y3Sv0ln4zMzOG0P-14">
          <mxGeometry relative="1" as="geometry" />
        </mxCell>
        <mxCell id="9NHKSMUlSYhg7HR8SAOz-11" value="&lt;font style=&quot;font-size: 14px;&quot;&gt;&lt;b&gt;CAST VOTE&lt;/b&gt;&lt;/font&gt;" style="rounded=0;whiteSpace=wrap;html=1;" parent="1" vertex="1">
          <mxGeometry x="352.5" y="440" width="120" height="30" as="geometry" />
        </mxCell>
        <mxCell id="lDO_9Y3Sv0ln4zMzOG0P-22" style="edgeStyle=orthogonalEdgeStyle;rounded=0;orthogonalLoop=1;jettySize=auto;html=1;exitX=0.5;exitY=1;exitDx=0;exitDy=0;entryX=0.5;entryY=0;entryDx=0;entryDy=0;" edge="1" parent="1" source="9NHKSMUlSYhg7HR8SAOz-33" target="lDO_9Y3Sv0ln4zMzOG0P-21">
          <mxGeometry relative="1" as="geometry" />
        </mxCell>
        <object label="&lt;font style=&quot;font-size: 14px;&quot;&gt;&lt;b&gt;START&lt;/b&gt;&lt;/font&gt;" placeholders="1" Data="Data" id="9NHKSMUlSYhg7HR8SAOz-33">
          <mxCell style="ellipse;whiteSpace=wrap;html=1;" parent="1" vertex="1">
            <mxGeometry x="372.5" y="90" width="85" height="30" as="geometry" />
          </mxCell>
        </object>
        <mxCell id="lDO_9Y3Sv0ln4zMzOG0P-10" value="&lt;b&gt;YES&lt;/b&gt;" style="text;html=1;align=center;verticalAlign=middle;whiteSpace=wrap;rounded=0;" vertex="1" parent="1">
          <mxGeometry x="397.5" y="350" width="60" height="30" as="geometry" />
        </mxCell>
        <mxCell id="lDO_9Y3Sv0ln4zMzOG0P-44" style="edgeStyle=orthogonalEdgeStyle;rounded=0;orthogonalLoop=1;jettySize=auto;html=1;exitX=0;exitY=0.5;exitDx=0;exitDy=0;" edge="1" parent="1" source="lDO_9Y3Sv0ln4zMzOG0P-14" target="9NHKSMUlSYhg7HR8SAOz-10">
          <mxGeometry relative="1" as="geometry" />
        </mxCell>
        <mxCell id="lDO_9Y3Sv0ln4zMzOG0P-50" style="edgeStyle=orthogonalEdgeStyle;rounded=0;orthogonalLoop=1;jettySize=auto;html=1;exitX=1;exitY=0.5;exitDx=0;exitDy=0;entryX=0;entryY=0.5;entryDx=0;entryDy=0;" edge="1" parent="1" source="lDO_9Y3Sv0ln4zMzOG0P-14" target="lDO_9Y3Sv0ln4zMzOG0P-38">
          <mxGeometry relative="1" as="geometry" />
        </mxCell>
        <mxCell id="lDO_9Y3Sv0ln4zMzOG0P-14" value="&lt;b&gt;ELECTION COMPLETE?&lt;/b&gt;" style="rhombus;whiteSpace=wrap;html=1;" vertex="1" parent="1">
          <mxGeometry x="350" y="490" width="125" height="80" as="geometry" />
        </mxCell>
        <mxCell id="lDO_9Y3Sv0ln4zMzOG0P-23" style="edgeStyle=orthogonalEdgeStyle;rounded=0;orthogonalLoop=1;jettySize=auto;html=1;exitX=0.5;exitY=1;exitDx=0;exitDy=0;entryX=0.5;entryY=0;entryDx=0;entryDy=0;" edge="1" parent="1" source="lDO_9Y3Sv0ln4zMzOG0P-21" target="9NHKSMUlSYhg7HR8SAOz-8">
          <mxGeometry relative="1" as="geometry" />
        </mxCell>
        <mxCell id="lDO_9Y3Sv0ln4zMzOG0P-21" value="&lt;b&gt;&lt;font style=&quot;font-size: 15px;&quot;&gt;Registration&lt;/font&gt;&lt;/b&gt;" style="rounded=0;whiteSpace=wrap;html=1;" vertex="1" parent="1">
          <mxGeometry x="357.5" y="140" width="120" height="40" as="geometry" />
        </mxCell>
        <mxCell id="lDO_9Y3Sv0ln4zMzOG0P-24" value="&lt;b&gt;NO&lt;/b&gt;" style="text;html=1;align=center;verticalAlign=middle;whiteSpace=wrap;rounded=0;" vertex="1" parent="1">
          <mxGeometry x="475" y="285" width="60" height="30" as="geometry" />
        </mxCell>
        <mxCell id="lDO_9Y3Sv0ln4zMzOG0P-32" style="edgeStyle=orthogonalEdgeStyle;rounded=0;orthogonalLoop=1;jettySize=auto;html=1;exitX=0.5;exitY=0;exitDx=0;exitDy=0;entryX=1;entryY=0.25;entryDx=0;entryDy=0;" edge="1" parent="1" source="lDO_9Y3Sv0ln4zMzOG0P-28" target="9NHKSMUlSYhg7HR8SAOz-8">
          <mxGeometry relative="1" as="geometry" />
        </mxCell>
        <mxCell id="lDO_9Y3Sv0ln4zMzOG0P-28" value="&lt;font style=&quot;font-size: 14px;&quot;&gt;&lt;b&gt;ERROR&lt;/b&gt;&lt;/font&gt;&lt;div&gt;&lt;font style=&quot;font-size: 14px;&quot;&gt;&lt;b&gt;MESSAGE&lt;/b&gt;&lt;/font&gt;&lt;/div&gt;" style="shape=parallelogram;perimeter=parallelogramPerimeter;whiteSpace=wrap;html=1;fixedSize=1;" vertex="1" parent="1">
          <mxGeometry x="510" y="285" width="110" height="50" as="geometry" />
        </mxCell>
        <mxCell id="lDO_9Y3Sv0ln4zMzOG0P-42" style="edgeStyle=orthogonalEdgeStyle;rounded=0;orthogonalLoop=1;jettySize=auto;html=1;exitX=0.5;exitY=1;exitDx=0;exitDy=0;entryX=0.5;entryY=0;entryDx=0;entryDy=0;" edge="1" parent="1" source="lDO_9Y3Sv0ln4zMzOG0P-33" target="9NHKSMUlSYhg7HR8SAOz-11">
          <mxGeometry relative="1" as="geometry" />
        </mxCell>
        <mxCell id="lDO_9Y3Sv0ln4zMzOG0P-33" value="&lt;span style=&quot;font-size: 14px;&quot;&gt;&lt;b&gt;ACCESS VOTING INTERFACE&lt;/b&gt;&lt;/span&gt;" style="rounded=0;whiteSpace=wrap;html=1;" vertex="1" parent="1">
          <mxGeometry x="355" y="380" width="120" height="30" as="geometry" />
        </mxCell>
        <mxCell id="lDO_9Y3Sv0ln4zMzOG0P-46" style="edgeStyle=orthogonalEdgeStyle;rounded=0;orthogonalLoop=1;jettySize=auto;html=1;exitX=1;exitY=0.5;exitDx=0;exitDy=0;entryX=0;entryY=0.5;entryDx=0;entryDy=0;" edge="1" parent="1" source="lDO_9Y3Sv0ln4zMzOG0P-38" target="lDO_9Y3Sv0ln4zMzOG0P-40">
          <mxGeometry relative="1" as="geometry" />
        </mxCell>
        <mxCell id="lDO_9Y3Sv0ln4zMzOG0P-55" style="edgeStyle=orthogonalEdgeStyle;rounded=0;orthogonalLoop=1;jettySize=auto;html=1;exitX=0.5;exitY=1;exitDx=0;exitDy=0;entryX=0;entryY=0;entryDx=0;entryDy=0;" edge="1" parent="1" source="lDO_9Y3Sv0ln4zMzOG0P-38" target="lDO_9Y3Sv0ln4zMzOG0P-53">
          <mxGeometry relative="1" as="geometry" />
        </mxCell>
        <mxCell id="lDO_9Y3Sv0ln4zMzOG0P-38" value="&lt;font style=&quot;font-size: 14px;&quot;&gt;&lt;b&gt;DISPLAY RESULTS&lt;/b&gt;&lt;/font&gt;" style="rounded=0;whiteSpace=wrap;html=1;" vertex="1" parent="1">
          <mxGeometry x="500" y="465" width="130" height="40" as="geometry" />
        </mxCell>
        <mxCell id="lDO_9Y3Sv0ln4zMzOG0P-47" style="edgeStyle=orthogonalEdgeStyle;rounded=0;orthogonalLoop=1;jettySize=auto;html=1;exitX=0.5;exitY=1;exitDx=0;exitDy=0;entryX=0.5;entryY=0;entryDx=0;entryDy=0;" edge="1" parent="1" source="lDO_9Y3Sv0ln4zMzOG0P-40" target="lDO_9Y3Sv0ln4zMzOG0P-41">
          <mxGeometry relative="1" as="geometry" />
        </mxCell>
        <mxCell id="lDO_9Y3Sv0ln4zMzOG0P-40" value="&lt;b&gt;AUDIT&lt;/b&gt;" style="rhombus;whiteSpace=wrap;html=1;" vertex="1" parent="1">
          <mxGeometry x="665" y="450" width="80" height="70" as="geometry" />
        </mxCell>
        <mxCell id="lDO_9Y3Sv0ln4zMzOG0P-56" style="edgeStyle=orthogonalEdgeStyle;rounded=0;orthogonalLoop=1;jettySize=auto;html=1;exitX=0.5;exitY=1;exitDx=0;exitDy=0;entryX=1;entryY=0.5;entryDx=0;entryDy=0;" edge="1" parent="1" source="lDO_9Y3Sv0ln4zMzOG0P-41" target="lDO_9Y3Sv0ln4zMzOG0P-53">
          <mxGeometry relative="1" as="geometry" />
        </mxCell>
        <mxCell id="lDO_9Y3Sv0ln4zMzOG0P-41" value="&lt;span style=&quot;font-size: 14px;&quot;&gt;&lt;b&gt;UNIQUE NUMBER&lt;/b&gt;&lt;/span&gt;" style="shape=parallelogram;perimeter=parallelogramPerimeter;whiteSpace=wrap;html=1;fixedSize=1;" vertex="1" parent="1">
          <mxGeometry x="650" y="550" width="110" height="50" as="geometry" />
        </mxCell>
        <mxCell id="lDO_9Y3Sv0ln4zMzOG0P-58" style="edgeStyle=orthogonalEdgeStyle;rounded=0;orthogonalLoop=1;jettySize=auto;html=1;exitX=0.5;exitY=1;exitDx=0;exitDy=0;entryX=0.5;entryY=0;entryDx=0;entryDy=0;" edge="1" parent="1" source="lDO_9Y3Sv0ln4zMzOG0P-53" target="9NHKSMUlSYhg7HR8SAOz-6">
          <mxGeometry relative="1" as="geometry" />
        </mxCell>
        <mxCell id="lDO_9Y3Sv0ln4zMzOG0P-53" value="" style="ellipse;whiteSpace=wrap;html=1;aspect=fixed;" vertex="1" parent="1">
          <mxGeometry x="470" y="620" width="20" height="20" as="geometry" />
        </mxCell>
      </root>
    </mxGraphModel>
  </diagram>
</mxfile>
